<?xml version="1.0" encoding="iso-8859-1"?>
<!-- Generator: Adobe Illustrator 19.0.0, SVG Export Plug-In . SVG Version: 6.00 Build 0)  -->
<svg version="1.1" id="Capa_1" xmlns="http://www.w3.org/2000/svg" xmlns:xlink="http://www.w3.org/1999/xlink" x="0px" y="0px"
	 viewBox="0 0 512 512" style="enable-background:new 0 0 512 512;" xml:space="preserve">
<path style="fill:#5A5A5A;" d="M258.443,292v54c0,35.4-17.701,66.899-45,85.8c-16.8,12.299-37.8,19.2-60,19.2h-60
	c-8.401,0-15-6.601-15-15v-60c0-8.401,6.599-15,15-15h60c8.401,0,15-6.601,15-15v-75.901l45,11.1L258.443,292z"/>
<g>
	<path style="fill:#444444;" d="M213.443,281.199l45,10.801v54c0,35.4-17.701,66.899-45,85.8V281.199z"/>
	<path style="fill:#444444;" d="M491.045,209.403c-2.71-3.984-7.178-6.431-11.997-6.563l-63.911-1.743l-63.604,61.23
		c-5.156,6.489-4.058,15.923,2.432,21.064l74.326,58.96c3.695,2.948,8.661,4.021,13.403,2.681c4.629-1.304,8.364-4.775,10.005-9.302
		l41.03-112.764C494.385,218.441,493.755,213.388,491.045,209.403z"/>
</g>
<path style="fill:#D3D3D8;" d="M392.243,235.899l-25.2,69.001c-3.9,11.4-12.299,20.4-23.101,25.499
	c-5.999,2.701-12.599,4.2-19.199,4.2c-5.101,0-10.201-0.901-15.3-2.701l-96-35.099L55.642,239.5
	c-11.1-4.2-20.099-12.301-25.199-23.401c-5.101-10.8-5.7-23.101-1.501-34.2l10.201-28.2c2.701-7.8,11.4-11.699,19.2-9l155.1,34.501
	l169.799,37.5C391.042,219.699,394.942,228.1,392.243,235.899z"/>
<path style="fill:#BABAC0;" d="M392.243,235.899l-25.2,69.001c-3.9,11.4-12.299,20.4-23.101,25.499
	c-5.999,2.701-12.599,4.2-19.199,4.2c-5.101,0-10.201-0.901-15.3-2.701l-96-35.099V179.2l169.799,37.5
	C391.042,219.699,394.942,228.1,392.243,235.899z"/>
<path style="fill:#ECECF1;" d="M445.042,139.9c-5.099-10.801-14.099-19.2-25.199-23.401l-206.4-75L109.642,2.781
	c-11.4-4.199-23.399-3.6-34.499,1.501c-10.8,5.099-19.2,14.099-23.101,25.499L21.144,115.3c-4.2,11.1-3.602,23.399,1.5,34.2
	c5.099,11.1,14.099,19.199,25.499,23.399l165.3,60l51.599,18.9c5.101,1.8,10.801,2.999,15.601,2.999c3.001,0,5.7-0.599,8.101-1.199
	l111.299-9.6c14.702-3.6,26.4-14.399,31.501-28.5l15-41.1C450.742,162.999,450.143,150.7,445.042,139.9z"/>
<path style="fill:#E2E2E7;" d="M446.543,174.399l-15,41.1c-5.101,14.101-16.8,24.901-31.501,28.5l-111.299,9.6
	c-2.401,0.601-5.099,1.199-8.101,1.199c-4.799,0-10.499-1.199-15.601-2.999l-51.599-18.9v-191.4l206.4,75
	c11.1,4.2,20.099,12.599,25.199,23.401C450.143,150.7,450.742,162.999,446.543,174.399z"/>
<path style="fill:#FF7816;" d="M168.545,119.975c-1.699,0-3.428-0.293-5.127-0.908l-56.382-20.508
	c-7.778-2.827-11.807-11.44-8.965-19.219c2.827-7.778,11.411-11.763,19.219-8.965l56.382,20.508
	c7.778,2.827,11.807,11.44,8.965,19.219C180.425,116.195,174.668,119.975,168.545,119.975z"/>
<path style="fill:#B35F49;" d="M33.443,512c-8.291,0-15-6.709-15-15V316c0-8.291,6.709-15,15-15c41.353,0,75,33.647,75,75v60
	C108.443,477.353,74.795,512,33.443,512z"/>
<g>
</g>
<g>
</g>
<g>
</g>
<g>
</g>
<g>
</g>
<g>
</g>
<g>
</g>
<g>
</g>
<g>
</g>
<g>
</g>
<g>
</g>
<g>
</g>
<g>
</g>
<g>
</g>
<g>
</g>
</svg>
